<svg viewBox="0 0 32 32" xmlns="http://www.w3.org/2000/svg">
  <path d="M20.354 1.938h-8.708c-5.354 0-9.709 4.354-9.709 9.707v8.709c0 5.354 4.355 9.709 9.709 9.709h8.708c5.353 0 9.708-4.355 9.708-9.709v-8.709c.001-5.353-4.354-9.707-9.708-9.707z" fill="#259245"/>
  <path d="M16.485 24.717l10.268-7.879c.862-.85.009-1.58.009-1.58L16.618 7.289a.999.999 0 00-1.235 0L5.239 15.258c-.886.852 0 1.572 0 1.572l10.02 7.881c-.001 0 .577.504 1.226.006z" fill="#ffe000"/>
  <path d="M16 11.832c-2.298 0-4.167 1.87-4.167 4.168s1.869 4.168 4.167 4.168 4.167-1.87 4.167-4.168-1.869-4.168-4.167-4.168z" fill="#103b9b"/>
  <path d="M19.94 17.34c-.16.5-.42.96-.75 1.351-.59-1.591-2.62-2.61-2.62-2.61-2.2-1.01-3.96-.61-4.73-.33.03-.56.18-1.09.41-1.57 4.72-.491 7 2.159 7.69 3.159z" fill="#efefef"/>
  <path d="M30.06 11.64v8.71c0 5.36-4.35 9.71-9.71 9.71h-8.7c-1.14 0-2.23-.199-3.25-.56l8.77-.75c9.06-1.25 9.41-7.37 9.41-7.37l-.04-10.63s-.19-6.25-7.72-8.81h1.53c5.36 0 9.71 4.35 9.71 9.7z" fill="#160204" opacity=".13"/>
  <g fill="#fff">
    <path d="M1.94 20.35v-8.71c0-5.35 4.35-9.699 9.71-9.699h3.37C12.38 2.47 5.25 4.52 4.17 11.08l-.05 10.7s.26 4.359 2.19 6.68a9.71 9.71 0 01-4.37-8.11zm11.65-3.88c0 1.42.6 2.71 1.57 3.61A4.163 4.163 0 0111.83 16c0-2.3 1.87-4.17 4.17-4.17.23 0 .45.02.67.06a4.945 4.945 0 00-3.08 4.58z" opacity=".2"/>
    <path d="M22.95 19.76l-6.47 4.96c-.64.49-1.22-.01-1.22-.01L5.24 16.83s-.89-.72 0-1.57l7.57-5.95-5.37 6.04s-.73.761 0 1.21l8.04 7s.65.25 1.04 0z" opacity=".2"/>
  </g>
</svg>
