<svg viewBox="0 0 24 24" xmlns="http://www.w3.org/2000/svg">
  <circle cx="12" cy="12" fill="#ffd54f" r="10"/>
  <circle cx="12" cy="12" fill="#f0a62d" r="8"/>
  <circle cx="12" cy="12" fill="#fec107" r="7.5"/>
  <g fill="#f0a62d">
    <path d="M6.438 12.2l1.335-1.335 1.344 1.344-1.335 1.335zm4.48 0l1.28-1.28 1.28 1.28-1.28 1.28z"/>
    <path d="M14.384 13.104l1.336 1.336-3.52 3.52-2.24-2.24-1.28-1.28 1.336-1.336h.008l1.272 1.28h.008l.896.896.904-.896zm-4.36-1.8L8.68 9.96l1.28-1.28 2.24-2.24 3.52 3.52-1.336 1.336v.008l-1.28-1.28-.904-.904-.896.904zm5.258.896l1.337-1.337 1.338 1.338-1.338 1.337z"/>
  </g>
  <g fill="#fff">
    <path d="M6.238 12l1.336-1.335 1.344 1.344-1.336 1.335zm4.479 0l1.28-1.28 1.28 1.28-1.28 1.28z"/>
    <path d="M14.184 12.904l1.336 1.336L12 17.76l-2.24-2.24-1.28-1.28 1.336-1.336h.008l1.272 1.28h.008l.896.896.904-.896zm-4.36-1.8L8.48 9.76l1.28-1.28L12 6.24l3.52 3.52-1.336 1.336v.008l-1.28-1.28L12 8.92l-.896.904zm5.258.896l1.337-1.337 1.338 1.338-1.338 1.337z"/>
  </g>
</svg>
