<svg xmlns="http://www.w3.org/2000/svg" data-name="Layer 2" viewBox="0 0 512 512">
  <circle cx="256" cy="256" fill="#fdd835" r="256"/>
  <path d="M256 0C114.62 0 0 114.62 0 256s114.62 256 256 256 256-114.62 256-256S397.38 0 256 0zm0 501C120.69 501 11 391.31 11 256S120.69 11 256 11s245 109.69 245 245-109.69 245-245 245z" fill="#fff" opacity=".5"/>
  <g fill="#fff">
    <path d="M358.14 21.19L21.19 358.14A254.523 254.523 0 01.68 274.7L274.7.68c29.47 2.12 57.58 9.25 83.44 20.51zm120.95 109.16L130.35 479.09a256.997 256.997 0 01-58.59-45.35L433.74 71.76c17.8 17.18 33.12 36.9 45.35 58.59zm-55.81-68.13L62.21 423.28a252.272 252.272 0 01-15.93-20.45L402.83 46.28c7.08 4.96 13.91 10.28 20.45 15.94zm80.69 129.9L192.12 503.97c-9.42-2.42-18.62-5.36-27.6-8.79l330.65-330.65c3.43 8.97 6.38 18.18 8.79 27.6z" opacity=".5"/>
    <path d="M463.97 267.08c0 110.77-89.81 200.58-200.58 200.58-62.23 0-117.86-28.34-154.63-72.83 36.63 39.6 89.05 64.39 147.24 64.39 110.77 0 200.58-89.81 200.58-200.58 0-48.53-17.24-93.05-45.94-127.75 33.11 35.78 53.33 83.62 53.33 136.19z" opacity=".5"/>
  </g>
  <circle cx="256" cy="258.64" fill="#f39e09" r="200.58"/>
  <path d="M408 127.76c-35.13-30.28-80.87-48.58-130.88-48.58-110.77 0-200.58 89.81-200.58 200.58 0 50.01 18.31 95.75 48.58 130.88-42.68-36.79-69.7-91.24-69.7-152 0-110.77 89.81-200.58 200.58-200.58 60.75 0 115.21 27.01 152 69.7z" fill="#e88102"/>
  <path d="M219.87 290.44c10.68-5.05 18.53-11.64 23.54-19.79 5.01-8.14 7.52-18.4 7.52-30.78v-15.84s-9.56-17.34-17.85-23.86c-11.9-9.36-28.41-14.05-49.52-14.05h-70.08v178.04h42.92v-62.97h23.23l31.43 62.97h45.98v-15.84l-37.17-57.89zm-17.91-28.7c-4.12 4.29-10.25 6.44-18.4 6.44h-27.15v-49.03h27.15c8.07 0 14.18 2.19 18.34 6.56s6.24 10.4 6.24 18.08-2.06 13.67-6.18 17.96zm136.39-47c6.03 0 10.68 2.28 13.94 6.85s4.89 11.09 4.89 19.56h41.33v-15.84s-7.52-16.28-12.78-22.5c-8.52-10.07-20.24-16.2-35.16-18.4v-26.29h-19.44v25.8c-15.49 1.47-27.88 6.66-37.17 15.59-6.39 6.14-13.94 18.22-13.94 18.22v15.84c0 8.23 1.3 15.24 3.91 21.03s6.36 10.88 11.25 15.28 10.72 8.27 17.49 11.62c6.77 3.34 14.14 6.65 22.13 9.9 7.99 3.26 13.57 6.73 16.75 10.39s4.77 8.72 4.77 15.16c0 5.79-1.59 10.33-4.77 13.63s-7.54 4.95-13.08 4.95c-7.58 0-13.43-2.42-17.55-7.28-4.12-4.85-6.18-11.92-6.18-21.22l-41.21-15.84v15.84c0 16.87 4.75 30.47 14.25 40.78s23.13 16.4 40.9 18.28v24.7h19.44v-24.58c15.24-1.47 27.29-6.6 36.13-15.41 8.84-8.8 13.27-20.18 13.27-34.12v-15.84s-3.02-2.91-4.16-5.32c-2.77-5.87-6.6-11.01-11.49-15.41s-10.7-8.33-17.42-11.8c-6.73-3.46-13.88-6.81-21.46-10.03s-13.08-6.6-16.51-10.15-5.14-8.33-5.14-14.37 1.49-10.62 4.46-14 7.15-5.07 12.53-5.07z" fill="#db6704" data-name="Bottom"/>
  <path d="M179.64 285.36h-23.23v62.97h-42.92V170.29h70.07c21.11 0 37.62 4.68 49.52 14.05s17.85 22.6 17.85 39.7c0 12.38-2.51 22.64-7.52 30.78s-12.86 14.74-23.54 19.79l37.17 71.89v1.84h-45.98l-31.43-62.97zm-23.23-33.02h27.15c8.15 0 14.29-2.14 18.4-6.44 4.12-4.29 6.18-10.28 6.18-17.96s-2.08-13.71-6.24-18.08-10.27-6.56-18.34-6.56h-27.15v49.03zm199.92 48.79c0-6.44-1.59-11.49-4.77-15.16s-8.76-7.13-16.75-10.39-15.37-6.56-22.13-9.9c-6.77-3.34-12.59-7.21-17.49-11.62s-8.64-9.5-11.25-15.28c-2.61-5.79-3.91-12.8-3.91-21.03 0-13.78 4.65-25.13 13.94-34.05 9.29-8.93 21.68-14.12 37.17-15.59v-25.8h19.44v26.29c14.92 2.2 26.64 8.34 35.16 18.4 8.52 10.07 12.78 22.85 12.78 38.33h-41.33c0-8.48-1.63-15-4.89-19.56s-7.91-6.85-13.94-6.85c-5.38 0-9.56 1.69-12.53 5.07-2.98 3.38-4.46 8.05-4.46 14s1.71 10.82 5.14 14.37 8.93 6.93 16.51 10.15 14.73 6.56 21.46 10.03 12.53 7.4 17.42 11.8 8.72 9.54 11.49 15.41 4.16 12.92 4.16 21.15c0 13.94-4.42 25.31-13.27 34.12-8.85 8.8-20.89 13.94-36.13 15.41v24.58h-19.44v-24.7c-17.77-1.88-31.41-7.97-40.9-18.28-9.5-10.31-14.25-23.91-14.25-40.78h41.21c0 9.29 2.06 16.37 6.18 21.22s9.97 7.28 17.55 7.28c5.54 0 9.9-1.65 13.08-4.95s4.77-7.84 4.77-13.63z" fill="#fdd835" data-name="Top"/>
  <g fill="#fff" data-name="Shade">
    <path d="M206.76 172.56l-30.75 30.75h-19.6v19.6l-42.92 42.92v-95.55h70.06c8.48 0 16.22.76 23.21 2.27zm16.86 109.32l33.41 64.61v1.84h-45.97l-17.94-35.95zm91.14 9.35c0 1.16.03 2.28.1 3.37s-31.64 31.64-31.64 31.64c-6.45-9.45-9.67-21.11-9.67-35.01zm11.06-87.25c-2.98 3.39-4.47 8.05-4.47 14.01s1.71 10.82 5.14 14.37c3.42 3.55 8.92 6.93 16.5 10.14 5.72 2.43 11.21 4.93 16.45 7.51l-25.29 25.29c-7.74-3.16-14.9-6.38-21.47-9.63-6.77-3.35-12.59-7.21-17.49-11.61-4.89-4.4-8.64-9.5-11.24-15.29-1.79-3.97-2.98-8.53-3.54-13.67l70.17-70.17v13.65c14.93 2.21 26.65 8.34 35.16 18.4 5.95 7.04 9.83 15.41 11.61 25.11l-13.23 13.23h-26.94c0-8.48-1.64-15-4.89-19.57-3.26-4.56-7.91-6.84-13.95-6.84-5.37 0-9.55 1.69-12.53 5.07zM113.48 335.63l42.93-42.92v36.37l-19.25 19.25h-23.68zm137.44-111.6c0 3.99-.26 7.77-.78 11.33l-63.68 63.68-6.83-13.68h-15.88l83.11-83.11c2.7 6.39 4.05 13.65 4.05 21.79zm43.05-40.34c5.51-5.29 12.1-9.27 19.78-11.95l-31.86 31.87c2.14-7.61 6.18-14.26 12.08-19.92zm49.24-41.4l-12.07 12.07v-12.07zm-14.52 225.1v-17.11c-5.81-.61-11.17-1.68-16.09-3.19l27.43-27.43c4.81-.27 8.66-1.92 11.53-4.9 2.73-2.85 4.3-6.61 4.68-11.31l32.1-32.1a49.51 49.51 0 015.05 8.37c2.5 5.32 3.87 11.6 4.11 18.86l-68.8 68.8z" opacity=".5"/>
    <path d="M423.28 147.94c-129.89 45.6-234.13 145.75-285.22 272.95-4.47-3.25-8.8-6.69-12.97-10.3-30.26-35.12-48.55-80.85-48.55-130.84 0-110.77 89.81-200.58 200.58-200.58 49.99 0 95.72 18.29 130.84 48.55 5.52 6.4 10.64 13.15 15.33 20.22z" opacity=".25"/>
  </g>
</svg>
