<svg fill="none" xmlns="http://www.w3.org/2000/svg" viewBox="0 0 32 29">
  <path d="M16 0l-5.346 8.2L5.394.132A1.15 1.15 0 015.926 0H16zm10.605.133l-5.26 8.066L16 0h10.073c.186 0 .367.047.532.134z" fill="#B1E4F9"/>
  <path d="M31.998 8.2H21.346L26.605.134c.186.096.351.244.483.433l4.604 6.567c.216.308.318.689.306 1.066z" fill="#75CEF9"/>
  <path d="M16 0l-5.347 8.2h10.693L16 0z" fill="#90D8F9"/>
  <path d="M10.654 8.2H0c-.012-.377.09-.758.306-1.066L4.911.567a1.35 1.35 0 01.483-.433l5.26 8.066z" fill="#E4F6FF"/>
  <path d="M21.346 8.2l-5.154 20.337a1.124 1.124 0 01-.384 0L10.654 8.2h10.692z" fill="#75CEF9"/>
  <path d="M15.808 28.537a1.26 1.26 0 01-.778-.488L.353 9.217.348 9.21A1.737 1.737 0 010 8.2h10.653l5.154 20.337z" fill="#B1E4F9"/>
  <path d="M31.998 8.2a1.74 1.74 0 01-.346 1.01l-.005.007L16.97 28.049l-.003.003a1.26 1.26 0 01-.775.485L21.346 8.2h10.652z" fill="#6BBEF6"/>
</svg>
