<svg fill="none" xmlns="http://www.w3.org/2000/svg" viewBox="0 0 18 17">
  <path d="M9 0L5.993 4.612 3.034.075a.642.642 0 01.3-.075H9zm5.966.075l-2.959 4.537L9 0h5.666c.105 0 .207.026.3.075z" fill="#B1E4F9"/>
  <path d="M18 4.613h-5.993L14.966.075a.77.77 0 01.272.244l2.59 3.694a.992.992 0 01.172.6z" fill="#75CEF9"/>
  <path d="M9 0L5.993 4.614h6.014L9 0z" fill="#90D8F9"/>
  <path d="M5.993 4.613H0a.992.992 0 01.172-.6L2.763.32a.77.77 0 01.271-.244l2.959 4.538z" fill="#E4F6FF"/>
  <path d="M12.007 4.612l-2.9 11.44a.63.63 0 01-.215 0l-2.9-11.44h6.015z" fill="#75CEF9"/>
  <path d="M8.892 16.052a.71.71 0 01-.437-.274L.199 5.184c-.002 0-.002-.002-.003-.004A.977.977 0 010 4.612h5.992l2.9 11.44z" fill="#B1E4F9"/>
  <path d="M18 4.612a.978.978 0 01-.195.568l-.003.004-8.256 10.594-.002.002a.71.71 0 01-.436.272l2.9-11.44H18z" fill="#6BBEF6"/>
</svg>
