<svg fill="none" xmlns="http://www.w3.org/2000/svg" viewBox="0 0 18 16">
  <path d="M9 0L5.993 4.312 3.034.07a.678.678 0 01.3-.07H9zm5.966.07l-2.959 4.242L9 0h5.666c.105 0 .207.024.3.07z" fill="#B1E4F9"/>
  <path d="M18 4.312h-5.993L14.966.07a.755.755 0 01.272.228l2.59 3.454a.884.884 0 01.172.56z" fill="#75CEF9"/>
  <path d="M9 0L5.993 4.312h6.014L9 0z" fill="#90D8F9"/>
  <path d="M5.993 4.312H0a.884.884 0 01.172-.56L2.763.298a.755.755 0 01.27-.228l2.959 4.242z" fill="#E4F6FF"/>
  <path d="M12.007 4.312l-2.9 10.695a.674.674 0 01-.215 0l-2.9-10.695h6.015z" fill="#75CEF9"/>
  <path d="M8.892 15.007a.717.717 0 01-.436-.255l-.001-.001L.199 4.847l-.003-.004A.876.876 0 010 4.312h5.992l2.9 10.695z" fill="#B1E4F9"/>
  <path d="M18 4.312a.876.876 0 01-.195.531l-.003.004-8.256 9.904-.002.002a.718.718 0 01-.436.254l2.9-10.695H18z" fill="#6BBEF6"/>
</svg>
