<svg fill="none" xmlns="http://www.w3.org/2000/svg" viewBox="0 0 12 11">
  <path d="M6 0L3.995 3.075 2.023.05a.428.428 0 01.2-.05H6zm3.977.05L8.005 3.075 6 0h3.777c.07 0 .138.017.2.05z" fill="#B1E4F9"/>
  <path d="M12 3.075H8.005L9.977.05a.5.5 0 01.181.163l1.727 2.462c.08.116.119.259.114.4z" fill="#75CEF9"/>
  <path d="M6 0L3.995 3.075h4.01L6 0z" fill="#90D8F9"/>
  <path d="M3.995 3.075H0a.661.661 0 01.115-.4L1.842.213a.513.513 0 01.18-.163h.001l1.972 3.025z" fill="#E4F6FF"/>
  <path d="M8.005 3.075L6.072 10.7a.419.419 0 01-.144 0L3.995 3.075h4.01z" fill="#75CEF9"/>
  <path d="M5.928 10.701a.472.472 0 01-.29-.182h-.002L.132 3.455s0-.002-.002-.003A.652.652 0 010 3.075h3.995L5.928 10.7z" fill="#B1E4F9"/>
  <path d="M12 3.075a.652.652 0 01-.13.378l-.002.003-5.504 7.062-.001.001a.473.473 0 01-.291.182l1.933-7.626h3.994z" fill="#6BBEF6"/>
</svg>
