<svg fill="none" xmlns="http://www.w3.org/2000/svg" viewBox="0 0 10 9">
  <path d="M5 0L3.33 2.395 1.685.04A.377.377 0 011.851 0H5zm3.314.039L6.671 2.395 5 0h3.148c.058 0 .114.013.166.039z" fill="#B1E4F9"/>
  <path d="M10 2.396H6.67L8.315.039a.42.42 0 01.151.127l1.439 1.918c.068.09.1.202.096.312z" fill="#75CEF9"/>
  <path d="M5 0L3.33 2.396h3.34L5 0z" fill="#90D8F9"/>
  <path d="M3.33 2.396H0a.491.491 0 01.096-.312L1.535.166a.42.42 0 01.15-.127L3.33 2.396z" fill="#E4F6FF"/>
  <path d="M6.67 2.395L5.06 8.337a.374.374 0 01-.12 0L3.33 2.395h3.34z" fill="#75CEF9"/>
  <path d="M4.94 8.337a.399.399 0 01-.243-.142L.11 2.693V2.69A.487.487 0 010 2.395h3.33l1.61 5.942z" fill="#B1E4F9"/>
  <path d="M10 2.395a.487.487 0 01-.109.296l-.001.002-4.587 5.502a.399.399 0 01-.243.142l1.61-5.942H10z" fill="#6BBEF6"/>
</svg>
