<svg fill="none" xmlns="http://www.w3.org/2000/svg" viewBox="0 0 14 13">
  <path d="M7 0L4.661 3.49 2.361.057A.51.51 0 012.592 0H7zm4.64.057L9.339 3.49 7 0h4.407c.082 0 .16.02.233.057z" fill="#B1E4F9"/>
  <path d="M14 3.49H9.339l2.3-3.433h.001a.593.593 0 01.211.184l2.015 2.796c.094.13.139.293.134.453z" fill="#75CEF9"/>
  <path d="M7 0L4.661 3.49h4.678L7 0z" fill="#90D8F9"/>
  <path d="M4.661 3.49H.001a.736.736 0 01.133-.453L2.15.24a.594.594 0 01.21-.184h.001l2.3 3.434z" fill="#E4F6FF"/>
  <path d="M9.339 3.49l-2.255 8.657a.503.503 0 01-.168 0L4.661 3.49H9.34z" fill="#75CEF9"/>
  <path d="M6.916 12.147a.554.554 0 01-.34-.207L.154 3.922.152 3.92A.727.727 0 010 3.49h4.661l2.255 8.657z" fill="#B1E4F9"/>
  <path d="M14 3.49a.727.727 0 01-.152.43l-.002.003-6.422 8.016v.001a.554.554 0 01-.34.207L9.339 3.49h4.66z" fill="#6BBEF6"/>
</svg>
