<svg viewBox="0 0 32 32" xmlns="http://www.w3.org/2000/svg">
  <path d="M20.354 1.938h-8.708c-5.354 0-9.709 4.355-9.709 9.708v8.709c0 5.353 4.355 9.708 9.709 9.708h8.708c5.353 0 9.708-4.355 9.708-9.708v-8.709c.001-5.353-4.354-9.708-9.708-9.708z" fill="#ee0922"/>
  <path d="M1.938 16v4.354c0 5.353 4.355 9.708 9.709 9.708h8.708c5.353 0 9.708-4.355 9.708-9.708V16z" fill="#efefef"/>
  <path d="M30.06 11.65v8.699c0 5.36-4.35 9.71-9.71 9.71h-8.7c-1.14 0-2.23-.199-3.25-.56l8.77-.75c9.06-1.25 9.41-7.37 9.41-7.37l-.04-10.63s-.19-6.25-7.72-8.81h1.53c5.36.001 9.71 4.351 9.71 9.711z" fill="#160204" opacity=".11"/>
  <path d="M1.94 20.35v-8.7c0-5.36 4.35-9.71 9.71-9.71h3.37c-2.64.53-9.77 2.58-10.85 9.14l-.05 10.7s.26 4.359 2.19 6.68a9.71 9.71 0 01-4.37-8.11z" fill="#fff" opacity=".2"/>
</svg>
