<svg fill="none" xmlns="http://www.w3.org/2000/svg" viewBox="0 0 16 16">
  <g clip-path="url(#ap73Sw2C_Khna)" fill="#CDCDCD">
    <path d="M10 8.667a.666.666 0 00-.667.666V12a.667.667 0 01-.666.667h-2v-10c0-.57-.363-1.078-.908-1.267l-.198-.067h3.106c.368 0 .666.3.666.667v2a.666.666 0 101.333 0V2c0-1.102-.897-2-2-2H1.5c-.025 0-.047.012-.071.015C1.397.012 1.366 0 1.333 0 .598 0 0 .598 0 1.333v12c0 .57.363 1.078.908 1.268l4.012 1.337c.136.042.271.062.413.062.736 0 1.334-.598 1.334-1.333V14h2c1.102 0 2-.897 2-2V9.333A.666.666 0 0010 8.667z"/>
    <path d="M15.805 6.195L13.138 3.53A.667.667 0 0012 4v2H9.333a.667.667 0 000 1.333H12v2a.668.668 0 001.138.472l2.667-2.667a.666.666 0 000-.943z"/>
  </g>
  <defs>
    <clipPath id="ap73Sw2C_Khna">
      <path fill="#fff" d="M0 0h16v16H0z"/>
    </clipPath>
  </defs>
</svg>
