<svg fill="none" xmlns="http://www.w3.org/2000/svg" viewBox="0 0 18 18">
  <path d="M18 9A9 9 0 100 9a9 9 0 0018 0z" fill="#2E2E2E"/>
  <path d="M5.895 6.895c0-.394.126-.792.378-1.196.253-.404.622-.738 1.106-1.003.485-.265 1.05-.397 1.696-.398.6 0 1.13.111 1.59.333.46.221.814.523 1.065.903.246.368.377.8.375 1.243 0 .352-.071.66-.214.925a2.827 2.827 0 01-.51.686c-.196.193-.549.517-1.058.972-.12.107-.232.22-.339.339-.073.08-.137.17-.189.267-.04.077-.072.158-.096.242-.023.08-.057.223-.103.425-.078.431-.325.647-.739.646a.754.754 0 01-.543-.21c-.147-.141-.22-.35-.22-.628 0-.348.053-.649.16-.904.103-.246.248-.474.43-.67.228-.241.468-.47.72-.687.265-.232.456-.407.574-.525a1.78 1.78 0 00.298-.394.955.955 0 00.121-.472 1.1 1.1 0 00-.37-.839c-.246-.227-.563-.341-.952-.341-.456 0-.791.115-1.007.344-.215.23-.397.569-.546 1.016-.141.468-.408.702-.801.702a.787.787 0 01-.587-.245c-.16-.164-.24-.34-.24-.531zm3.03 6.806a.977.977 0 01-.66-.245c-.19-.163-.284-.392-.284-.686a.884.884 0 01.274-.658.924.924 0 01.67-.268.913.913 0 01.926.926c0 .29-.093.518-.28.683a.943.943 0 01-.646.248z" fill="#fff"/>
</svg>
