<svg xmlns="http://www.w3.org/2000/svg" viewBox="0 0 512 512">
  <ellipse cx="256" cy="256" fill="#e88102" rx="245" ry="256"/>
  <circle cx="256" cy="242.5" fill="#fdd835" r="242.5"/>
  <g fill="#fff">
    <path d="M352.8 20.1L33.6 339.2c-10.7-24.5-17.4-51.1-19.4-79L273.7.6c27.9 2.1 54.5 8.8 79.1 19.5zm114.5 103.4L137 453.8c-20.6-11.6-39.2-26.1-55.5-43L424.4 68c16.8 16.2 31.3 34.9 42.9 55.5zm-52.8-64.6l-342 342c-5.3-6.2-10.4-12.7-15.1-19.4L395.1 43.8c6.7 4.7 13.2 9.8 19.4 15.1zM490.9 182L195.5 477.4c-8.9-2.3-17.6-5.1-26.1-8.3l313.2-313.2c3.2 8.5 6 17.2 8.3 26.1z" opacity=".5"/>
    <path d="M498.5 242.5c0 1.7 0 3.3-.1 5C495.8 115.9 388.3 10 256 10S16.2 115.9 13.6 247.5c0-1.7-.1-3.3-.1-5C13.5 108.6 122.1 0 256 0s242.5 108.6 242.5 242.5z" opacity=".5"/>
    <path d="M453 253c0 104.9-85.1 190-190 190-58.9 0-111.6-26.9-146.5-69 34.7 37.5 84.3 61 139.5 61 104.9 0 190-85.1 190-190 0-46-16.3-88.1-43.5-121 31.3 33.9 50.5 79.2 50.5 129z" opacity=".5"/>
  </g>
  <circle cx="256" cy="245" fill="#f39e09" r="190"/>
  <path d="M400 121c-33.3-28.7-76.6-46-124-46-104.9 0-190 85.1-190 190 0 47.4 17.3 90.7 46 124-40.4-34.9-66-86.4-66-144 0-104.9 85.1-190 190-190 57.5 0 109.1 25.6 144 66z" fill="#e88102"/>
  <path d="M227 260.4c10.1-4.8 17.6-11.1 22.4-18.8s7.1-17.5 7.1-29.2v-15s-9.1-16.5-17-22.7c-11.3-8.9-27-13.3-47-13.3H126v169.1h40.8v-59.8h22.1l29.9 59.8h43.7v-15l-8.2-2.5zm-17-27.3c-3.9 4.1-9.7 6.1-17.5 6.1h-25.8v-46.6h25.8c7.7 0 13.5 2.1 17.4 6.2s5.9 9.9 5.9 17.2-1.9 13-5.8 17.1zm173.1-13.6c-8.6-11.4-20.6-17.1-36.1-17.1-12.2 0-22.1 4.6-29.6 13.9l-1.2-11.6h-36.6v174h39.1v-58.6c7.4 8.4 16.9 12.7 28.5 12.7 14.9 0 26.8-5.8 35.6-17.5 8.8-11.6 13.2-27.2 13.2-46.7v-16.9c0-.1-6.5-23.6-12.9-32.2zm-26.2 50.7c-.4 21.5-6.8 32.3-19.3 32.3-9.1 0-15.4-3.5-18.8-10.5v-49.5c3.1-6.7 9.3-10 18.6-10 13 0 19.5 11.1 19.5 33.4z" fill="#db6704"/>
  <path d="M188.8 255.6h-22.1v59.8H126V146.3h66.5c20.1 0 35.7 4.4 47 13.3s17 21.5 17 37.7c0 11.8-2.4 21.5-7.1 29.2s-12.2 14-22.4 18.8l35.3 68.3v1.7h-43.7zm-22-31.4h25.8c7.7 0 13.6-2 17.5-6.1s5.9-9.8 5.9-17.1-2-13-5.9-17.2-9.8-6.2-17.4-6.2h-25.8v46.6zM396 253.5c0 19.5-4.4 35.1-13.2 46.7s-20.6 17.5-35.6 17.5c-11.5 0-21-4.2-28.5-12.7v58.6h-39.1v-174h36.6l1.2 11.6c7.5-9.3 17.4-13.9 29.6-13.9 15.5 0 27.5 5.7 36.1 17.1s12.9 27.1 12.9 47.1zm-39.1-2.4c0-22.3-6.5-33.4-19.5-33.4-9.3 0-15.5 3.3-18.6 10v49.5c3.4 7 9.7 10.5 18.8 10.5 12.5 0 18.9-10.8 19.3-32.3z" fill="#fdd835"/>
  <g fill="#fff">
    <path d="M222.3 150.5l-27.2 27.2c-.8-.1-1.7-.1-2.5-.1h-25.8V206L126 246.8v-98.5l2.1-2.1h64.5c11.2.1 21.2 1.5 29.7 4.3zm11.5 108l28.5 55.1v1.8h-43.6l-13.9-27.8zm150.6-52.1l-29 29c-2.6-11.9-8.6-17.8-18.1-17.8s-15.5 3.3-18.6 10V272l-39.1 39.1v-98.5l23-23h13.6l1.2 11.6c7.5-9.3 17.4-13.9 29.6-13.9 15.5 0 27.5 5.7 36.1 17.1.5.7.9 1.4 1.3 2zM126 312.9l40.8-40.7v34.4l-8.8 8.8h-32zm130.5-115.5c0 9.2-1.5 17.2-4.4 23.9L229 244.4c-.6.3-1.3.6-1.9.9l.3.7-28.9 28.9-9.6-19.3h-5.5l71.7-71.7c.9 4.2 1.4 8.6 1.4 13.5zm27.2-7.7l-4.1 4.1v-4.1zm-4.1 169.1l39.2-39.2v34.5l-9.6 9.6h-29.6zM396 251.6v1.9c0 10-1.1 18.9-3.5 26.8L355.9 317c-2.8.5-5.6.7-8.6.7-7.8 0-14.7-2-20.7-5.9l69.1-69.1c.2 2.9.3 5.9.3 8.9z" opacity=".5"/>
    <path d="M414.5 140.1c-123 43.2-221.8 138.1-270.2 258.6-4.2-3.1-8.3-6.3-12.3-9.8-28.7-33.3-46-76.6-46-123.9 0-104.9 85.1-190 190-190 47.4 0 90.7 17.3 123.9 46 5.3 6.1 10.1 12.5 14.6 19.1z" opacity=".25"/>
  </g>
</svg>
