<svg viewBox="0 0 64.01 64" xmlns="http://www.w3.org/2000/svg">
  <g data-name="Layer 2">
    <g data-name="Layer 1">
      <g data-name="Toncoin TON">
        <path d="M63.05 39.75A32 32 0 1139.74 1a32 32 0 0123.31 38.75z" fill="#0089cd"/>
        <path d="M32 64a32.21 32.21 0 01-7.74-1A32 32 0 011 24.27a32 32 0 0158.47-8.74A32 32 0 0132 64zm0-58A26 26 0 006.79 25.72a26 26 0 1050.43 12.57A26 26 0 0038.29 6.78 26.31 26.31 0 0032 6z" fill="#fff" opacity=".24"/>
        <path d="M62.09 21.13l-61.68 16a32 32 0 0161.68-16z" fill="#fff" opacity=".3"/>
        <path d="M57.22 38.29A26 26 0 1138.29 6.78a26 26 0 0118.93 31.51z" fill="#0089cd"/>
        <path d="M46.36 21.69a3.55 3.55 0 00-1.72-1.59 5 5 0 00-2.14-.52H21.69a4 4 0 00-2.25.52 3.39 3.39 0 00-2 1.74 4.12 4.12 0 00-.56 2.52 4.38 4.38 0 00.83 2.25l12.92 22.53a1.78 1.78 0 001.44.77 1.55 1.55 0 001.47-.77l13-22.53a4.11 4.11 0 00.63-2.39 5.38 5.38 0 00-.81-2.53zM30.43 42.11L20.5 24.77l-.39-.77a1 1 0 01.13-.69 1 1 0 01.53-.52h9.66zm13.26-18a1.84 1.84 0 010 .81L33.54 42.19V22.88h8.82a1.82 1.82 0 01.92.14l.14.14c.14 0 .14.25.27.25a1.06 1.06 0 010 .66z" fill="#fff" fill-rule="evenodd"/>
      </g>
    </g>
  </g>
</svg>
