<svg viewBox="0 0 64.01 64.01" xmlns="http://www.w3.org/2000/svg">
  <g data-name="Layer 2">
    <g data-name="Layer 1">
      <g data-name="Tron TRX">
        <path d="M63.05 39.75A32 32 0 1139.74 1a32 32 0 0123.31 38.75z" fill="#ed112e"/>
        <path d="M32 64a32.21 32.21 0 01-7.74-1A32 32 0 011 24.27a32 32 0 0158.47-8.74A32 32 0 0132 64zm0-58A26 26 0 006.79 25.72a26 26 0 1050.44 12.57A26 26 0 0038.29 6.78 26.31 26.31 0 0032 6z" fill="#fff" opacity=".24"/>
        <path d="M62.09 21.13L.41 37.14a32 32 0 0161.68-16z" fill="#fff" opacity=".3"/>
        <path d="M57.22 38.3A26 26 0 1138.29 6.78 26 26 0 0157.22 38.3z" fill="#ed112e"/>
        <path d="M48.87 29.06l-6.38-6-24.07-4.31 12.75 31.49L48.87 29zm-11.74.66l4.79-3.91 2.76 2.57-7.57 1.34zm-12.39-7.43l8.89 7.23 5.64-4.6-14.53-2.65zM23.11 24l9.39 7.66L31 43.58 23.09 24zM33.4 43.86l1.4-11.32 9.49-1.7-10.89 13z" fill="#fff" fill-rule="evenodd"/>
      </g>
    </g>
  </g>
</svg>
