<svg viewBox="0 0 64.01 64.01" xmlns="http://www.w3.org/2000/svg">
  <g data-name="Layer 2">
    <g data-name="Layer 1">
      <g data-name="Tether USDT">
        <path d="M63.05 39.75A32 32 0 1139.74 1a32 32 0 0123.31 38.75z" fill="#26a17b"/>
        <path d="M32 64a32.21 32.21 0 01-7.74-1 32 32 0 01-8.73-58.42A32 32 0 1132 64zm0-58A26 26 0 006.79 25.72 26 26 0 1057.23 38.3 26.07 26.07 0 0032 6z" fill="#fff" opacity=".24"/>
        <path d="M62.09 21.13L.41 37.14a32 32 0 0161.68-16z" fill="#fff" opacity=".3"/>
        <path d="M57.22 38.3A26 26 0 1138.29 6.78 26 26 0 0157.22 38.3z" fill="#26a17b"/>
        <path d="M48 32c0-2-5.49-3.7-12.79-4.09V24.7h9.11V18H19.41v6.7h9.11v3.23C21.36 28.34 16 30 16 32s5.36 3.66 12.52 4.08v11.54h6.69V36.09C42.51 35.7 48 34 48 32zm-16 2c-7.83 0-14.18-1.21-14.18-2.71 0-1.27 4.55-2.33 10.7-2.63v3.89c1.11.06 2.28.1 3.48.1s2.19 0 3.21-.08v-3.93c6.29.28 11 1.36 11 2.64C46.18 32.78 39.83 34 32 34z" fill="#fff"/>
      </g>
    </g>
  </g>
</svg>
